<?xml version="1.0" encoding="utf-8"?>
<!-- Generator: Adobe Illustrator 25.3.0, SVG Export Plug-In . SVG Version: 6.00 Build 0)  -->
<svg version="1.1" id="Layer_3" xmlns="http://www.w3.org/2000/svg" xmlns:xlink="http://www.w3.org/1999/xlink" x="0px" y="0px"
	 viewBox="0 0 500 500" style="enable-background:new 0 0 500 500;" xml:space="preserve">
<style type="text/css">
	.st0{fill:#4499D4;stroke:#4499D4;stroke-miterlimit:10;}
</style>
<path class="st0" d="M470.55,148.88c0.29-1.92,0.92-7.74-2.36-13.97c-3.29-6.25-8.47-9.03-10.21-9.87
	c-30.48-19.17-61.48-38.36-93-57.55c-30.13-18.35-60.04-36.28-89.71-53.8c-2.54-1.76-9.05-5.78-18.31-6.09
	c-10.18-0.35-17.47,3.98-20,5.64c-33.14,18.83-66.65,38.29-100.5,58.39C107.55,88.81,79.18,106,51.34,123.17
	c-2.01,1.48-5.64,4.55-8.34,9.7c-2.71,5.18-3.17,9.93-3.23,12.43c-0.45,67.74-0.91,135.49-1.36,203.23
	c-0.28,2.63-0.76,10.26,3.91,17.87c2.95,4.81,6.72,7.61,8.98,9.02c13.81,10.2,28.23,20.39,43.26,30.49
	c46.56,31.31,92.09,57.17,135.16,78.62c3.77,2.22,11.79,6.27,22.72,6.64c12.5,0.42,21.73-4.2,25.53-6.38
	c32.48-17.99,65.37-36.68,98.64-56.09c26.92-15.71,53.3-31.43,79.15-47.15c2.31-1.5,7.21-5.12,10.55-11.74
	c3.04-6.03,3.29-11.56,3.23-14.3c1.11-31.11,1.81-63.01,2.04-95.66C471.87,221.85,471.48,184.84,470.55,148.88z M220.36,389.21
	c-46.85-11.3-86.34-46.76-102.47-93.62c-2.71-7.87-21.25-64.87,12.26-120.51c40.39-67.08,118.41-69.07,122.89-69.11
	c81.1-0.66,124.41,67.19,126.64,70.81c-21.33,12.03-42.67,24.06-64,36.09c-16.75-23.62-44.67-35.94-71.83-31.66
	c-32.85,5.18-61,34.09-60.94,70.13c0.06,35.66,27.7,64.18,60.26,69.79c28.89,4.97,58.71-8.6,75.15-34.52
	c20.57,12.42,41.13,24.83,61.7,37.25C343.6,377.56,279.54,403.49,220.36,389.21z M398.33,258.32c-5.25,0.09-10.51,0.17-15.76,0.26
	c0.11,5.22,0.23,10.44,0.34,15.66c-6.33,0.11-12.67,0.23-19,0.34c-0.05-5.33-0.1-10.67-0.15-16c-5.13,0.06-10.27,0.11-15.4,0.17
	c-0.09-6.38-0.17-12.77-0.26-19.15c5.22-0.06,10.44-0.11,15.66-0.17c-0.07-4.97-0.13-9.95-0.2-14.92l18.67,0.11
	c0.03,5.02,0.05,10.05,0.08,15.07c5.36-0.03,10.73-0.06,16.09-0.09C398.38,245.84,398.36,252.08,398.33,258.32z M409.26,258.74
	c0.04-6.41,0.09-12.82,0.13-19.23c5.15-0.04,10.3-0.09,15.45-0.13c0.03-5.13,0.06-10.27,0.09-15.4c6.38,0.06,12.77,0.11,19.15,0.17
	c0.07,5.21,0.14,10.41,0.21,15.62c4.96,0.01,9.93,0.03,14.89,0.04c0,6.34,0,12.68,0,19.02c-5.07-0.02-10.14-0.04-15.22-0.07
	c-0.05,5.19-0.1,10.37-0.14,15.56c-6.4-0.03-12.79-0.06-19.19-0.09c-0.03-5.11-0.07-10.23-0.1-15.34
	C419.43,258.84,414.34,258.79,409.26,258.74z"/>
</svg>
