<?xml version="1.0" encoding="utf-8"?>
<!-- Generator: Adobe Illustrator 25.3.0, SVG Export Plug-In . SVG Version: 6.00 Build 0)  -->
<svg version="1.1" id="Layer_3" xmlns="http://www.w3.org/2000/svg" xmlns:xlink="http://www.w3.org/1999/xlink" x="0px" y="0px"
	 viewBox="0 0 500 500" style="enable-background:new 0 0 500 500;" xml:space="preserve">
<style type="text/css">
	.st0{fill:#4499D4;stroke:#4499D4;stroke-miterlimit:10;}
</style>
<path class="st0" d="M496.13,402.45V90.85c-0.36-7.66-2.5-32.75-22.1-54.7C448.89,8,414.61,6.95,408.83,6.87H87.84
	C82.18,7,48.6,8.36,24.3,36.15C5.66,57.48,3.64,81.6,3.31,89.19v314.36c-0.07,6.84,0.5,32.63,19.89,55.73
	c21.4,25.49,50.25,29.25,56.36,29.91h325.41c4.63,0.26,44.98,1.85,71.74-30.19C495.92,435.98,496.28,409.79,496.13,402.45z
	 M261.88,348.98c-6.45-16.94-12.89-33.89-19.34-50.83c-25.27,0.17-50.53,0.33-75.8,0.5c-6.04,16.96-12.08,33.92-18.13,50.88
	c-14.37-0.17-28.73-0.34-43.1-0.51c23.7-68.02,47.4-136.04,71.1-204.07c-0.12-4.57-0.23-9.15-0.35-13.72
	c18.78,0.57,37.55,1.15,56.33,1.72c25.78,72.01,51.57,144.01,77.35,216.02H261.88z M352.97,115.54
	c14.24-0.74,27.46,11.05,27.08,25.67c-0.36,14.09-13.2,24.97-26.92,24.34c-12.71-0.58-24.16-10.94-24.51-24.34
	C328.25,127.39,339.85,116.22,352.97,115.54z M376.62,347.68c-15.26,0.06-30.52,0.11-45.79,0.17
	c-0.08-54.52-0.17-109.05-0.25-163.57l46.55,0.34C376.96,238.97,376.79,293.33,376.62,347.68z"/>
<path class="st0" d="M204.19,168.45c-8.77,29.36-17.53,58.72-26.3,88.09c17.79-0.17,35.57-0.34,53.36-0.51
	C222.23,226.83,213.21,197.64,204.19,168.45z"/>
</svg>
