<?xml version="1.0" encoding="utf-8"?>
<!-- Generator: Adobe Illustrator 25.3.0, SVG Export Plug-In . SVG Version: 6.00 Build 0)  -->
<svg version="1.1" id="Layer_3" xmlns="http://www.w3.org/2000/svg" xmlns:xlink="http://www.w3.org/1999/xlink" x="0px" y="0px"
	 viewBox="0 0 500 500" style="enable-background:new 0 0 500 500;" xml:space="preserve">
<style type="text/css">
	.st0{fill:#4499D4;stroke:#4499D4;stroke-miterlimit:10;}
</style>
<path class="st0" d="M73.48,82.13c-8.33,20.04-28.3,75.6-12.71,144.2c16.01,70.43,59.69,111.42,76.24,126.52
	c9.62,8.78,106.86,94.57,231.49,65.19c57.54-13.56,96.04-45.81,114.36-63.54c-11.82,24.14-41.44,75.83-101.1,107.18
	c-95.17,50.01-215.09,21.11-288.4-48.07C28.35,352.27-13.18,246.79,21.55,156.72C34.95,121.97,56.59,97.57,73.48,82.13z"/>
<path class="st0" d="M198.34,37.93c-6.49,13.76-25.43,58.39-12.15,113.26c11.5,47.52,40.57,75.51,51.38,85.64
	c42.9,40.2,113.07,66.58,180.53,45.16c37.87-12.02,62.68-35.23,75.27-49.03c-7.61,19.22-22.71,48.41-52.49,70.17
	c-67.49,49.31-176.45,35.66-238.12-28.18c-39.52-40.91-66.09-109.12-45.3-172.93C167.54,71.07,185.93,49.9,198.34,37.93z"/>
<path class="st0" d="M297.79,17.49c-4.11,9.28-10.51,27.14-8.84,49.72c2.82,38.26,26.72,62.28,34.25,69.61
	c28.34,27.61,62.23,32.21,75.69,33.15c42.99,3,73.48-17.71,81.77-23.76c-6.23,10.46-17.54,25.9-36.46,37.02
	c-44.44,26.11-109.24,15.69-145.54-24.53c-4.53-5.02-38.65-44.09-27.39-93.7C276.65,41.28,290.11,25.3,297.79,17.49z"/>
</svg>
