<?xml version="1.0" encoding="utf-8"?>
<!-- Generator: Adobe Illustrator 25.3.0, SVG Export Plug-In . SVG Version: 6.00 Build 0)  -->
<svg version="1.1" id="Layer_3" xmlns="http://www.w3.org/2000/svg" xmlns:xlink="http://www.w3.org/1999/xlink" x="0px" y="0px"
	 viewBox="0 0 500 500" style="enable-background:new 0 0 500 500;" xml:space="preserve">
<style type="text/css">
	.st0{fill:#4499D4;stroke:#4499D4;stroke-miterlimit:10;}
</style>
<path class="st0" d="M256.34,3.06c-0.24,3.59-1,8.9-3.66,14.59c-5.1,10.93-14.05,16.57-17.74,19.08
	c-7.28,4.94-16.47,16.21-34.85,38.75c-10.15,12.45-23.11,32-33.08,61.7c-8.72,20.71-22.03,60.04-19.34,110.5
	c0.6,11.3,3.68,54.85,29.02,104.1c22.55,43.85,52.23,71.77,70.91,86.8c5.32-24.51,9.98-50.64,13.62-78.3
	c9.47-72.06,9.73-137.47,5.79-193.62c5.3,52.56,7.07,114.99,0,184.6c-3.4,33.49-8.44,64.62-14.35,93.15
	c0.93,3.15,1.78,6.49,2.51,10.01c2.93,14.22,2.92,27.09,1.87,37.62c4.25,1.97,8.49,3.95,12.74,5.92c-1.1-13.5-1.3-25.1-1.17-34.35
	c0.12-8.17,0.52-15.61,4.6-23.74c1.6-3.18,3.32-5.6,4.59-7.21c6.47-5.06,15.03-12.25,24.33-21.64c5.04-5.09,27.47-28.19,43.33-58.36
	c25.19-47.93,24.68-96.4,24.31-113.81c0,0-2-93.29-59.47-161.95c-6.83-8.16-13.44-16.49-20.43-24.51
	c-11.03-12.65-16.62-18.15-23.03-28.36C261.5,15.5,258.22,7.94,256.34,3.06z"/>
</svg>
